# xmcd CD database file
#
# Track frame offsets:
#	150
#	18208
#	34238
#	62200
#	85523
#	105023
#	121860
#	143343
#	164953
#	180103
#	193368
#	214845
#	234060
#	261878
#	281913
#
# Disc length: 3962 seconds
#
# Revision: 8
# Processed by: cddbd v1.5PL3 Copyright (c) Steve Scherf et al.
# Submitted via: CDex 1.51
#
DISCID=c40f780f
DTITLE=１９ - up to you
DYEAR=2001
DGENRE=JPop
TTITLE0=たいせつなひと ( Album ver. )
TTITLE1=足跡
TTITLE2=炎
TTITLE3=corona
TTITLE4=太陽は僕らを照らしてた
TTITLE5=曇レ日
TTITLE6=無意識とは
TTITLE7=水・陸・そら、無限大
TTITLE8=ショベルヘッド '79
TTITLE9=落書き
TTITLE10=コッツウォルズ
TTITLE11=背景ロマン
TTITLE12=毎週火曜日
TTITLE13=Sing a song
TTITLE14=みんなのうた ( bonustrack )
EXTD=YEAR: 2001
EXTT0=
EXTT1=
EXTT2=
EXTT3=
EXTT4=
EXTT5=
EXTT6=
EXTT7=
EXTT8=
EXTT9=
EXTT10=
EXTT11=
EXTT12=
EXTT13=
EXTT14=
PLAYORDER=
